<?xml version="1.0" encoding="utf-8" standalone="no"?>
<!DOCTYPE svg PUBLIC "-//W3C//DTD SVG 1.1//EN"
  "http://www.w3.org/Graphics/SVG/1.1/DTD/svg11.dtd">
<svg xmlns:xlink="http://www.w3.org/1999/xlink" width="1008pt" height="288pt" viewBox="0 0 1008 288" xmlns="http://www.w3.org/2000/svg" version="1.1">
 <metadata>
  <rdf:RDF xmlns:dc="http://purl.org/dc/elements/1.1/" xmlns:cc="http://creativecommons.org/ns#" xmlns:rdf="http://www.w3.org/1999/02/22-rdf-syntax-ns#">
   <cc:Work>
    <dc:type rdf:resource="http://purl.org/dc/dcmitype/StillImage"/>
    <dc:date>2025-11-25T08:31:46.975131</dc:date>
    <dc:format>image/svg+xml</dc:format>
    <dc:creator>
     <cc:Agent>
      <dc:title>Matplotlib v3.10.5, https://matplotlib.org/</dc:title>
     </cc:Agent>
    </dc:creator>
   </cc:Work>
  </rdf:RDF>
 </metadata>
 <defs>
  <style type="text/css">*{stroke-linejoin: round; stroke-linecap: butt}</style>
 </defs>
 <g id="figure_1">
  <g id="patch_1">
   <path d="M 0 288 
L 1008 288 
L 1008 0 
L 0 0 
z
" style="fill: #ffffff"/>
  </g>
  <g id="axes_1">
   <g id="patch_2">
    <path d="M 44.57 246.04 
L 481.815 246.04 
L 481.815 26.88 
L 44.57 26.88 
z
" style="fill: #ffffff"/>
   </g>
   <g id="matplotlib.axis_1">
    <g id="xtick_1">
     <g id="line2d_1">
      <defs>
       <path id="m007088d8d3" d="M 0 0 
L 0 3.5 
" style="stroke: #000000; stroke-width: 0.8"/>
      </defs>
      <g>
       <use xlink:href="#m007088d8d3" x="44.57" y="246.04" style="stroke: #000000; stroke-width: 0.8"/>
      </g>
     </g>
     <g id="text_1">
      <!-- 0.00 -->
      <g transform="translate(33.437187 260.638438) scale(0.1 -0.1)">
       <defs>
        <path id="DejaVuSans-30" d="M 2034 4250 
Q 1547 4250 1301 3770 
Q 1056 3291 1056 2328 
Q 1056 1369 1301 889 
Q 1547 409 2034 409 
Q 2525 409 2770 889 
Q 3016 1369 3016 2328 
Q 3016 3291 2770 3770 
Q 2525 4250 2034 4250 
z
M 2034 4750 
Q 2819 4750 3233 4129 
Q 3647 3509 3647 2328 
Q 3647 1150 3233 529 
Q 2819 -91 2034 -91 
Q 1250 -91 836 529 
Q 422 1150 422 2328 
Q 422 3509 836 4129 
Q 1250 4750 2034 4750 
z
" transform="scale(0.015625)"/>
        <path id="DejaVuSans-2e" d="M 684 794 
L 1344 794 
L 1344 0 
L 684 0 
L 684 794 
z
" transform="scale(0.015625)"/>
       </defs>
       <use xlink:href="#DejaVuSans-30"/>
       <use xlink:href="#DejaVuSans-2e" transform="translate(63.623047 0)"/>
       <use xlink:href="#DejaVuSans-30" transform="translate(95.410156 0)"/>
       <use xlink:href="#DejaVuSans-30" transform="translate(159.033203 0)"/>
      </g>
     </g>
    </g>
    <g id="xtick_2">
     <g id="line2d_2">
      <g>
       <use xlink:href="#m007088d8d3" x="132.019" y="246.04" style="stroke: #000000; stroke-width: 0.8"/>
      </g>
     </g>
     <g id="text_2">
      <!-- 0.02 -->
      <g transform="translate(120.886188 260.638438) scale(0.1 -0.1)">
       <defs>
        <path id="DejaVuSans-32" d="M 1228 531 
L 3431 531 
L 3431 0 
L 469 0 
L 469 531 
Q 828 903 1448 1529 
Q 2069 2156 2228 2338 
Q 2531 2678 2651 2914 
Q 2772 3150 2772 3378 
Q 2772 3750 2511 3984 
Q 2250 4219 1831 4219 
Q 1534 4219 1204 4116 
Q 875 4013 500 3803 
L 500 4441 
Q 881 4594 1212 4672 
Q 1544 4750 1819 4750 
Q 2544 4750 2975 4387 
Q 3406 4025 3406 3419 
Q 3406 3131 3298 2873 
Q 3191 2616 2906 2266 
Q 2828 2175 2409 1742 
Q 1991 1309 1228 531 
z
" transform="scale(0.015625)"/>
       </defs>
       <use xlink:href="#DejaVuSans-30"/>
       <use xlink:href="#DejaVuSans-2e" transform="translate(63.623047 0)"/>
       <use xlink:href="#DejaVuSans-30" transform="translate(95.410156 0)"/>
       <use xlink:href="#DejaVuSans-32" transform="translate(159.033203 0)"/>
      </g>
     </g>
    </g>
    <g id="xtick_3">
     <g id="line2d_3">
      <g>
       <use xlink:href="#m007088d8d3" x="219.468" y="246.04" style="stroke: #000000; stroke-width: 0.8"/>
      </g>
     </g>
     <g id="text_3">
      <!-- 0.04 -->
      <g transform="translate(208.335187 260.638438) scale(0.1 -0.1)">
       <defs>
        <path id="DejaVuSans-34" d="M 2419 4116 
L 825 1625 
L 2419 1625 
L 2419 4116 
z
M 2253 4666 
L 3047 4666 
L 3047 1625 
L 3713 1625 
L 3713 1100 
L 3047 1100 
L 3047 0 
L 2419 0 
L 2419 1100 
L 313 1100 
L 313 1709 
L 2253 4666 
z
" transform="scale(0.015625)"/>
       </defs>
       <use xlink:href="#DejaVuSans-30"/>
       <use xlink:href="#DejaVuSans-2e" transform="translate(63.623047 0)"/>
       <use xlink:href="#DejaVuSans-30" transform="translate(95.410156 0)"/>
       <use xlink:href="#DejaVuSans-34" transform="translate(159.033203 0)"/>
      </g>
     </g>
    </g>
    <g id="xtick_4">
     <g id="line2d_4">
      <g>
       <use xlink:href="#m007088d8d3" x="306.917" y="246.04" style="stroke: #000000; stroke-width: 0.8"/>
      </g>
     </g>
     <g id="text_4">
      <!-- 0.06 -->
      <g transform="translate(295.784187 260.638438) scale(0.1 -0.1)">
       <defs>
        <path id="DejaVuSans-36" d="M 2113 2584 
Q 1688 2584 1439 2293 
Q 1191 2003 1191 1497 
Q 1191 994 1439 701 
Q 1688 409 2113 409 
Q 2538 409 2786 701 
Q 3034 994 3034 1497 
Q 3034 2003 2786 2293 
Q 2538 2584 2113 2584 
z
M 3366 4563 
L 3366 3988 
Q 3128 4100 2886 4159 
Q 2644 4219 2406 4219 
Q 1781 4219 1451 3797 
Q 1122 3375 1075 2522 
Q 1259 2794 1537 2939 
Q 1816 3084 2150 3084 
Q 2853 3084 3261 2657 
Q 3669 2231 3669 1497 
Q 3669 778 3244 343 
Q 2819 -91 2113 -91 
Q 1303 -91 875 529 
Q 447 1150 447 2328 
Q 447 3434 972 4092 
Q 1497 4750 2381 4750 
Q 2619 4750 2861 4703 
Q 3103 4656 3366 4563 
z
" transform="scale(0.015625)"/>
       </defs>
       <use xlink:href="#DejaVuSans-30"/>
       <use xlink:href="#DejaVuSans-2e" transform="translate(63.623047 0)"/>
       <use xlink:href="#DejaVuSans-30" transform="translate(95.410156 0)"/>
       <use xlink:href="#DejaVuSans-36" transform="translate(159.033203 0)"/>
      </g>
     </g>
    </g>
    <g id="xtick_5">
     <g id="line2d_5">
      <g>
       <use xlink:href="#m007088d8d3" x="394.366" y="246.04" style="stroke: #000000; stroke-width: 0.8"/>
      </g>
     </g>
     <g id="text_5">
      <!-- 0.08 -->
      <g transform="translate(383.233187 260.638438) scale(0.1 -0.1)">
       <defs>
        <path id="DejaVuSans-38" d="M 2034 2216 
Q 1584 2216 1326 1975 
Q 1069 1734 1069 1313 
Q 1069 891 1326 650 
Q 1584 409 2034 409 
Q 2484 409 2743 651 
Q 3003 894 3003 1313 
Q 3003 1734 2745 1975 
Q 2488 2216 2034 2216 
z
M 1403 2484 
Q 997 2584 770 2862 
Q 544 3141 544 3541 
Q 544 4100 942 4425 
Q 1341 4750 2034 4750 
Q 2731 4750 3128 4425 
Q 3525 4100 3525 3541 
Q 3525 3141 3298 2862 
Q 3072 2584 2669 2484 
Q 3125 2378 3379 2068 
Q 3634 1759 3634 1313 
Q 3634 634 3220 271 
Q 2806 -91 2034 -91 
Q 1263 -91 848 271 
Q 434 634 434 1313 
Q 434 1759 690 2068 
Q 947 2378 1403 2484 
z
M 1172 3481 
Q 1172 3119 1398 2916 
Q 1625 2713 2034 2713 
Q 2441 2713 2670 2916 
Q 2900 3119 2900 3481 
Q 2900 3844 2670 4047 
Q 2441 4250 2034 4250 
Q 1625 4250 1398 4047 
Q 1172 3844 1172 3481 
z
" transform="scale(0.015625)"/>
       </defs>
       <use xlink:href="#DejaVuSans-30"/>
       <use xlink:href="#DejaVuSans-2e" transform="translate(63.623047 0)"/>
       <use xlink:href="#DejaVuSans-30" transform="translate(95.410156 0)"/>
       <use xlink:href="#DejaVuSans-38" transform="translate(159.033203 0)"/>
      </g>
     </g>
    </g>
    <g id="xtick_6">
     <g id="line2d_6">
      <g>
       <use xlink:href="#m007088d8d3" x="481.815" y="246.04" style="stroke: #000000; stroke-width: 0.8"/>
      </g>
     </g>
     <g id="text_6">
      <!-- 0.10 -->
      <g transform="translate(470.682187 260.638438) scale(0.1 -0.1)">
       <defs>
        <path id="DejaVuSans-31" d="M 794 531 
L 1825 531 
L 1825 4091 
L 703 3866 
L 703 4441 
L 1819 4666 
L 2450 4666 
L 2450 531 
L 3481 531 
L 3481 0 
L 794 0 
L 794 531 
z
" transform="scale(0.015625)"/>
       </defs>
       <use xlink:href="#DejaVuSans-30"/>
       <use xlink:href="#DejaVuSans-2e" transform="translate(63.623047 0)"/>
       <use xlink:href="#DejaVuSans-31" transform="translate(95.410156 0)"/>
       <use xlink:href="#DejaVuSans-30" transform="translate(159.033203 0)"/>
      </g>
     </g>
    </g>
    <g id="text_7">
     <!-- Tiempo (s) -->
     <g transform="translate(236.63 274.316562) scale(0.1 -0.1)">
      <defs>
       <path id="DejaVuSans-54" d="M -19 4666 
L 3928 4666 
L 3928 4134 
L 2272 4134 
L 2272 0 
L 1638 0 
L 1638 4134 
L -19 4134 
L -19 4666 
z
" transform="scale(0.015625)"/>
       <path id="DejaVuSans-69" d="M 603 3500 
L 1178 3500 
L 1178 0 
L 603 0 
L 603 3500 
z
M 603 4863 
L 1178 4863 
L 1178 4134 
L 603 4134 
L 603 4863 
z
" transform="scale(0.015625)"/>
       <path id="DejaVuSans-65" d="M 3597 1894 
L 3597 1613 
L 953 1613 
Q 991 1019 1311 708 
Q 1631 397 2203 397 
Q 2534 397 2845 478 
Q 3156 559 3463 722 
L 3463 178 
Q 3153 47 2828 -22 
Q 2503 -91 2169 -91 
Q 1331 -91 842 396 
Q 353 884 353 1716 
Q 353 2575 817 3079 
Q 1281 3584 2069 3584 
Q 2775 3584 3186 3129 
Q 3597 2675 3597 1894 
z
M 3022 2063 
Q 3016 2534 2758 2815 
Q 2500 3097 2075 3097 
Q 1594 3097 1305 2825 
Q 1016 2553 972 2059 
L 3022 2063 
z
" transform="scale(0.015625)"/>
       <path id="DejaVuSans-6d" d="M 3328 2828 
Q 3544 3216 3844 3400 
Q 4144 3584 4550 3584 
Q 5097 3584 5394 3201 
Q 5691 2819 5691 2113 
L 5691 0 
L 5113 0 
L 5113 2094 
Q 5113 2597 4934 2840 
Q 4756 3084 4391 3084 
Q 3944 3084 3684 2787 
Q 3425 2491 3425 1978 
L 3425 0 
L 2847 0 
L 2847 2094 
Q 2847 2600 2669 2842 
Q 2491 3084 2119 3084 
Q 1678 3084 1418 2786 
Q 1159 2488 1159 1978 
L 1159 0 
L 581 0 
L 581 3500 
L 1159 3500 
L 1159 2956 
Q 1356 3278 1631 3431 
Q 1906 3584 2284 3584 
Q 2666 3584 2933 3390 
Q 3200 3197 3328 2828 
z
" transform="scale(0.015625)"/>
       <path id="DejaVuSans-70" d="M 1159 525 
L 1159 -1331 
L 581 -1331 
L 581 3500 
L 1159 3500 
L 1159 2969 
Q 1341 3281 1617 3432 
Q 1894 3584 2278 3584 
Q 2916 3584 3314 3078 
Q 3713 2572 3713 1747 
Q 3713 922 3314 415 
Q 2916 -91 2278 -91 
Q 1894 -91 1617 61 
Q 1341 213 1159 525 
z
M 3116 1747 
Q 3116 2381 2855 2742 
Q 2594 3103 2138 3103 
Q 1681 3103 1420 2742 
Q 1159 2381 1159 1747 
Q 1159 1113 1420 752 
Q 1681 391 2138 391 
Q 2594 391 2855 752 
Q 3116 1113 3116 1747 
z
" transform="scale(0.015625)"/>
       <path id="DejaVuSans-6f" d="M 1959 3097 
Q 1497 3097 1228 2736 
Q 959 2375 959 1747 
Q 959 1119 1226 758 
Q 1494 397 1959 397 
Q 2419 397 2687 759 
Q 2956 1122 2956 1747 
Q 2956 2369 2687 2733 
Q 2419 3097 1959 3097 
z
M 1959 3584 
Q 2709 3584 3137 3096 
Q 3566 2609 3566 1747 
Q 3566 888 3137 398 
Q 2709 -91 1959 -91 
Q 1206 -91 779 398 
Q 353 888 353 1747 
Q 353 2609 779 3096 
Q 1206 3584 1959 3584 
z
" transform="scale(0.015625)"/>
       <path id="DejaVuSans-20" transform="scale(0.015625)"/>
       <path id="DejaVuSans-28" d="M 1984 4856 
Q 1566 4138 1362 3434 
Q 1159 2731 1159 2009 
Q 1159 1288 1364 580 
Q 1569 -128 1984 -844 
L 1484 -844 
Q 1016 -109 783 600 
Q 550 1309 550 2009 
Q 550 2706 781 3412 
Q 1013 4119 1484 4856 
L 1984 4856 
z
" transform="scale(0.015625)"/>
       <path id="DejaVuSans-73" d="M 2834 3397 
L 2834 2853 
Q 2591 2978 2328 3040 
Q 2066 3103 1784 3103 
Q 1356 3103 1142 2972 
Q 928 2841 928 2578 
Q 928 2378 1081 2264 
Q 1234 2150 1697 2047 
L 1894 2003 
Q 2506 1872 2764 1633 
Q 3022 1394 3022 966 
Q 3022 478 2636 193 
Q 2250 -91 1575 -91 
Q 1294 -91 989 -36 
Q 684 19 347 128 
L 347 722 
Q 666 556 975 473 
Q 1284 391 1588 391 
Q 1994 391 2212 530 
Q 2431 669 2431 922 
Q 2431 1156 2273 1281 
Q 2116 1406 1581 1522 
L 1381 1569 
Q 847 1681 609 1914 
Q 372 2147 372 2553 
Q 372 3047 722 3315 
Q 1072 3584 1716 3584 
Q 2034 3584 2315 3537 
Q 2597 3491 2834 3397 
z
" transform="scale(0.015625)"/>
       <path id="DejaVuSans-29" d="M 513 4856 
L 1013 4856 
Q 1481 4119 1714 3412 
Q 1947 2706 1947 2009 
Q 1947 1309 1714 600 
Q 1481 -109 1013 -844 
L 513 -844 
Q 928 -128 1133 580 
Q 1338 1288 1338 2009 
Q 1338 2731 1133 3434 
Q 928 4138 513 4856 
z
" transform="scale(0.015625)"/>
      </defs>
      <use xlink:href="#DejaVuSans-54"/>
      <use xlink:href="#DejaVuSans-69" transform="translate(57.958984 0)"/>
      <use xlink:href="#DejaVuSans-65" transform="translate(85.742188 0)"/>
      <use xlink:href="#DejaVuSans-6d" transform="translate(147.265625 0)"/>
      <use xlink:href="#DejaVuSans-70" transform="translate(244.677734 0)"/>
      <use xlink:href="#DejaVuSans-6f" transform="translate(308.154297 0)"/>
      <use xlink:href="#DejaVuSans-20" transform="translate(369.335938 0)"/>
      <use xlink:href="#DejaVuSans-28" transform="translate(401.123047 0)"/>
      <use xlink:href="#DejaVuSans-73" transform="translate(440.136719 0)"/>
      <use xlink:href="#DejaVuSans-29" transform="translate(492.236328 0)"/>
     </g>
    </g>
   </g>
   <g id="matplotlib.axis_2">
    <g id="ytick_1">
     <g id="line2d_7">
      <defs>
       <path id="mb4d8274e68" d="M 0 0 
L -3.5 0 
" style="stroke: #000000; stroke-width: 0.8"/>
      </defs>
      <g>
       <use xlink:href="#mb4d8274e68" x="44.57" y="217.547433" style="stroke: #000000; stroke-width: 0.8"/>
      </g>
     </g>
     <g id="text_8">
      <!-- 0 -->
      <g transform="translate(31.2075 221.346652) scale(0.1 -0.1)">
       <use xlink:href="#DejaVuSans-30"/>
      </g>
     </g>
    </g>
    <g id="ytick_2">
     <g id="line2d_8">
      <g>
       <use xlink:href="#mb4d8274e68" x="44.57" y="188.784583" style="stroke: #000000; stroke-width: 0.8"/>
      </g>
     </g>
     <g id="text_9">
      <!-- 10 -->
      <g transform="translate(24.845 192.583801) scale(0.1 -0.1)">
       <use xlink:href="#DejaVuSans-31"/>
       <use xlink:href="#DejaVuSans-30" transform="translate(63.623047 0)"/>
      </g>
     </g>
    </g>
    <g id="ytick_3">
     <g id="line2d_9">
      <g>
       <use xlink:href="#mb4d8274e68" x="44.57" y="160.021732" style="stroke: #000000; stroke-width: 0.8"/>
      </g>
     </g>
     <g id="text_10">
      <!-- 20 -->
      <g transform="translate(24.845 163.820951) scale(0.1 -0.1)">
       <use xlink:href="#DejaVuSans-32"/>
       <use xlink:href="#DejaVuSans-30" transform="translate(63.623047 0)"/>
      </g>
     </g>
    </g>
    <g id="ytick_4">
     <g id="line2d_10">
      <g>
       <use xlink:href="#mb4d8274e68" x="44.57" y="131.258881" style="stroke: #000000; stroke-width: 0.8"/>
      </g>
     </g>
     <g id="text_11">
      <!-- 30 -->
      <g transform="translate(24.845 135.0581) scale(0.1 -0.1)">
       <defs>
        <path id="DejaVuSans-33" d="M 2597 2516 
Q 3050 2419 3304 2112 
Q 3559 1806 3559 1356 
Q 3559 666 3084 287 
Q 2609 -91 1734 -91 
Q 1441 -91 1130 -33 
Q 819 25 488 141 
L 488 750 
Q 750 597 1062 519 
Q 1375 441 1716 441 
Q 2309 441 2620 675 
Q 2931 909 2931 1356 
Q 2931 1769 2642 2001 
Q 2353 2234 1838 2234 
L 1294 2234 
L 1294 2753 
L 1863 2753 
Q 2328 2753 2575 2939 
Q 2822 3125 2822 3475 
Q 2822 3834 2567 4026 
Q 2313 4219 1838 4219 
Q 1578 4219 1281 4162 
Q 984 4106 628 3988 
L 628 4550 
Q 988 4650 1302 4700 
Q 1616 4750 1894 4750 
Q 2613 4750 3031 4423 
Q 3450 4097 3450 3541 
Q 3450 3153 3228 2886 
Q 3006 2619 2597 2516 
z
" transform="scale(0.015625)"/>
       </defs>
       <use xlink:href="#DejaVuSans-33"/>
       <use xlink:href="#DejaVuSans-30" transform="translate(63.623047 0)"/>
      </g>
     </g>
    </g>
    <g id="ytick_5">
     <g id="line2d_11">
      <g>
       <use xlink:href="#mb4d8274e68" x="44.57" y="102.496031" style="stroke: #000000; stroke-width: 0.8"/>
      </g>
     </g>
     <g id="text_12">
      <!-- 40 -->
      <g transform="translate(24.845 106.295249) scale(0.1 -0.1)">
       <use xlink:href="#DejaVuSans-34"/>
       <use xlink:href="#DejaVuSans-30" transform="translate(63.623047 0)"/>
      </g>
     </g>
    </g>
    <g id="ytick_6">
     <g id="line2d_12">
      <g>
       <use xlink:href="#mb4d8274e68" x="44.57" y="73.73318" style="stroke: #000000; stroke-width: 0.8"/>
      </g>
     </g>
     <g id="text_13">
      <!-- 50 -->
      <g transform="translate(24.845 77.532399) scale(0.1 -0.1)">
       <defs>
        <path id="DejaVuSans-35" d="M 691 4666 
L 3169 4666 
L 3169 4134 
L 1269 4134 
L 1269 2991 
Q 1406 3038 1543 3061 
Q 1681 3084 1819 3084 
Q 2600 3084 3056 2656 
Q 3513 2228 3513 1497 
Q 3513 744 3044 326 
Q 2575 -91 1722 -91 
Q 1428 -91 1123 -41 
Q 819 9 494 109 
L 494 744 
Q 775 591 1075 516 
Q 1375 441 1709 441 
Q 2250 441 2565 725 
Q 2881 1009 2881 1497 
Q 2881 1984 2565 2268 
Q 2250 2553 1709 2553 
Q 1456 2553 1204 2497 
Q 953 2441 691 2322 
L 691 4666 
z
" transform="scale(0.015625)"/>
       </defs>
       <use xlink:href="#DejaVuSans-35"/>
       <use xlink:href="#DejaVuSans-30" transform="translate(63.623047 0)"/>
      </g>
     </g>
    </g>
    <g id="ytick_7">
     <g id="line2d_13">
      <g>
       <use xlink:href="#mb4d8274e68" x="44.57" y="44.970329" style="stroke: #000000; stroke-width: 0.8"/>
      </g>
     </g>
     <g id="text_14">
      <!-- 60 -->
      <g transform="translate(24.845 48.769548) scale(0.1 -0.1)">
       <use xlink:href="#DejaVuSans-36"/>
       <use xlink:href="#DejaVuSans-30" transform="translate(63.623047 0)"/>
      </g>
     </g>
    </g>
    <g id="text_15">
     <!-- Amplitud -->
     <g transform="translate(18.765312 159.006094) rotate(-90) scale(0.1 -0.1)">
      <defs>
       <path id="DejaVuSans-41" d="M 2188 4044 
L 1331 1722 
L 3047 1722 
L 2188 4044 
z
M 1831 4666 
L 2547 4666 
L 4325 0 
L 3669 0 
L 3244 1197 
L 1141 1197 
L 716 0 
L 50 0 
L 1831 4666 
z
" transform="scale(0.015625)"/>
       <path id="DejaVuSans-6c" d="M 603 4863 
L 1178 4863 
L 1178 0 
L 603 0 
L 603 4863 
z
" transform="scale(0.015625)"/>
       <path id="DejaVuSans-74" d="M 1172 4494 
L 1172 3500 
L 2356 3500 
L 2356 3053 
L 1172 3053 
L 1172 1153 
Q 1172 725 1289 603 
Q 1406 481 1766 481 
L 2356 481 
L 2356 0 
L 1766 0 
Q 1100 0 847 248 
Q 594 497 594 1153 
L 594 3053 
L 172 3053 
L 172 3500 
L 594 3500 
L 594 4494 
L 1172 4494 
z
" transform="scale(0.015625)"/>
       <path id="DejaVuSans-75" d="M 544 1381 
L 544 3500 
L 1119 3500 
L 1119 1403 
Q 1119 906 1312 657 
Q 1506 409 1894 409 
Q 2359 409 2629 706 
Q 2900 1003 2900 1516 
L 2900 3500 
L 3475 3500 
L 3475 0 
L 2900 0 
L 2900 538 
Q 2691 219 2414 64 
Q 2138 -91 1772 -91 
Q 1169 -91 856 284 
Q 544 659 544 1381 
z
M 1991 3584 
L 1991 3584 
z
" transform="scale(0.015625)"/>
       <path id="DejaVuSans-64" d="M 2906 2969 
L 2906 4863 
L 3481 4863 
L 3481 0 
L 2906 0 
L 2906 525 
Q 2725 213 2448 61 
Q 2172 -91 1784 -91 
Q 1150 -91 751 415 
Q 353 922 353 1747 
Q 353 2572 751 3078 
Q 1150 3584 1784 3584 
Q 2172 3584 2448 3432 
Q 2725 3281 2906 2969 
z
M 947 1747 
Q 947 1113 1208 752 
Q 1469 391 1925 391 
Q 2381 391 2643 752 
Q 2906 1113 2906 1747 
Q 2906 2381 2643 2742 
Q 2381 3103 1925 3103 
Q 1469 3103 1208 2742 
Q 947 2381 947 1747 
z
" transform="scale(0.015625)"/>
      </defs>
      <use xlink:href="#DejaVuSans-41"/>
      <use xlink:href="#DejaVuSans-6d" transform="translate(68.408203 0)"/>
      <use xlink:href="#DejaVuSans-70" transform="translate(165.820312 0)"/>
      <use xlink:href="#DejaVuSans-6c" transform="translate(229.296875 0)"/>
      <use xlink:href="#DejaVuSans-69" transform="translate(257.080078 0)"/>
      <use xlink:href="#DejaVuSans-74" transform="translate(284.863281 0)"/>
      <use xlink:href="#DejaVuSans-75" transform="translate(324.072266 0)"/>
      <use xlink:href="#DejaVuSans-64" transform="translate(387.451172 0)"/>
     </g>
    </g>
   </g>
   <g id="line2d_14">
    <path d="M 44.57 218.867332 
L 45.881735 218.949651 
L 46.31898 219.036403 
L 47.19347 218.838353 
L 48.505205 219.006317 
L 48.94245 219.013332 
L 49.379695 218.863455 
L 51.56592 218.929163 
L 52.003165 218.856442 
L 53.3149 219.027912 
L 53.752145 219.007424 
L 54.18939 218.858657 
L 55.93837 219.052277 
L 56.81286 218.876007 
L 58.124595 219.049691 
L 59.43633 218.929534 
L 60.748065 219.053568 
L 61.18531 218.901663 
L 62.497045 218.981768 
L 62.93429 219.065749 
L 63.80878 218.868439 
L 65.120515 219.035111 
L 65.55776 219.046185 
L 65.995005 218.89705 
L 68.18123 218.961096 
L 68.618475 218.882099 
L 69.93021 219.059473 
L 70.367455 219.040461 
L 70.8047 218.892804 
L 72.55368 219.081256 
L 73.42817 218.902402 
L 74.739905 219.074424 
L 76.488885 218.98786 
L 77.363375 219.084946 
L 77.80062 218.933041 
L 78.67511 218.992841 
L 79.986845 219.013332 
L 80.42409 218.901479 
L 81.735825 219.05855 
L 82.17307 219.073688 
L 82.610315 218.925841 
L 83.92205 219.022743 
L 84.359295 219.102664 
L 85.233785 218.906277 
L 86.54552 219.082915 
L 86.982765 219.064826 
L 87.42001 218.91809 
L 89.16899 219.10617 
L 90.04348 218.921964 
L 91.355215 219.093621 
L 93.104195 219.013332 
L 93.978685 219.105247 
L 94.41593 218.962203 
L 95.29042 219.017391 
L 96.602155 219.036403 
L 97.0394 218.917535 
L 98.351135 219.074979 
L 98.78838 219.099158 
L 99.225625 218.944669 
L 100.53736 219.042124 
L 100.974605 219.119093 
L 101.849095 218.926396 
L 103.16083 219.095651 
L 103.598075 219.088636 
L 104.03532 218.936918 
L 105.7843 219.125182 
L 106.65879 218.93581 
L 107.970525 219.112817 
L 109.719505 219.035111 
L 110.593995 219.121308 
L 111.468485 218.953528 
L 112.78022 219.127952 
L 114.091955 219.012777 
L 115.40369 219.121308 
L 115.840935 218.968479 
L 117.15267 219.055596 
L 117.589915 219.13552 
L 118.464405 218.94393 
L 119.77614 219.109308 
L 120.213385 219.10894 
L 120.65063 218.960912 
L 122.836855 219.022375 
L 123.2741 218.955372 
L 124.585835 219.128504 
L 126.334815 219.048216 
L 127.209305 219.142348 
L 128.083795 218.971433 
L 129.39553 219.141793 
L 130.707265 219.018869 
L 132.019 219.121121 
L 132.89349 218.954268 
L 133.330735 219.07147 
L 133.76798 219.026805 
L 134.205225 219.201596 
L 134.64247 218.973832 
L 135.079715 219.061504 
L 135.51696 218.901292 
L 135.954205 219.234636 
L 136.39145 218.893912 
L 136.828695 219.408873 
L 137.26594 218.613356 
L 137.703185 219.434345 
L 138.14043 218.513871 
L 138.577675 219.735941 
L 139.01492 218.358459 
L 139.452165 219.998405 
L 139.88941 217.809719 
L 140.326655 220.443599 
L 140.7639 217.381874 
L 141.201145 221.179684 
L 141.63839 216.604262 
L 142.075635 222.078747 
L 142.51288 215.045157 
L 142.950125 224.372087 
L 143.38737 211.324688 
L 143.824615 233.117049 
L 144.26186 159.881697 
L 144.699105 39.421435 
L 145.13635 56.75115 
L 145.573595 47.975918 
L 146.01084 52.687368 
L 146.448085 50.713897 
L 146.88533 50.215362 
L 147.322575 52.93396 
L 147.75982 47.44065 
L 148.197065 57.263528 
L 148.63431 38.3533 
L 149.071555 153.916058 
L 149.5088 233.20989 
L 149.946045 210.748077 
L 150.38329 224.222768 
L 150.820535 214.815178 
L 151.25778 221.939578 
L 151.695025 216.15224 
L 152.13227 220.805919 
L 152.569515 217.088217 
L 153.00676 220.233001 
L 153.444005 217.709127 
L 153.88125 219.667463 
L 154.318495 217.940213 
L 154.75574 219.439882 
L 155.192985 218.286291 
L 155.63023 219.323232 
L 156.067475 218.449085 
L 156.50472 218.981031 
L 156.941965 218.571828 
L 157.37921 218.975863 
L 157.816455 218.752712 
L 158.2537 218.973832 
L 158.690945 218.653411 
L 159.12819 218.816019 
L 159.565435 218.779476 
L 160.439925 218.902031 
L 161.314415 218.728902 
L 162.62615 218.91532 
L 164.37513 218.849427 
L 165.24962 218.9467 
L 166.12411 218.778181 
L 167.435845 218.961096 
L 168.74758 218.84223 
L 170.059315 218.961096 
L 170.49656 218.807899 
L 171.808295 218.908676 
L 172.24554 218.988599 
L 173.12003 218.803286 
L 174.431765 218.973464 
L 174.86901 218.974755 
L 175.306255 218.826356 
L 177.49248 218.895942 
L 177.929725 218.831525 
L 179.24146 219.012409 
L 180.99044 218.940792 
L 181.86493 219.03751 
L 182.73942 218.870838 
L 184.051155 219.047292 
L 185.36289 218.93267 
L 186.674625 219.058366 
L 187.11187 218.909415 
L 188.423605 218.991734 
L 188.86085 219.076455 
L 189.73534 218.891881 
L 191.047075 219.057627 
L 191.48432 219.064642 
L 191.921565 218.914583 
L 194.10779 218.984167 
L 194.545035 218.912737 
L 195.85677 219.09528 
L 197.60575 219.022743 
L 198.48024 219.117062 
L 199.35473 218.945593 
L 200.666465 219.126845 
L 201.9782 219.010562 
L 203.289935 219.133857 
L 203.72718 218.986381 
L 205.038915 219.067041 
L 205.47616 219.148253 
L 206.35065 218.95851 
L 207.662385 219.127397 
L 208.09963 219.142164 
L 208.536875 218.989335 
L 210.7231 219.061504 
L 211.160345 218.984538 
L 212.47208 219.163575 
L 212.909325 219.137918 
L 213.34657 218.997274 
L 215.09555 219.191075 
L 215.97004 219.011485 
L 217.281775 219.188492 
L 218.59351 219.077562 
L 219.905245 219.203443 
L 220.34249 219.05486 
L 221.654225 219.131458 
L 222.09147 219.217655 
L 222.96596 219.025881 
L 224.277695 219.195504 
L 224.71494 219.205658 
L 225.152185 219.057075 
L 226.46392 219.15859 
L 226.901165 219.242204 
L 227.775655 219.047476 
L 229.08739 219.218762 
L 229.524635 219.208425 
L 229.96188 219.059844 
L 231.71086 219.253093 
L 232.58535 219.070363 
L 233.897085 219.247001 
L 235.646065 219.164495 
L 236.520555 219.260845 
L 236.9578 219.119093 
L 237.83229 219.172618 
L 239.144025 219.196244 
L 239.58127 219.08513 
L 240.893005 219.245526 
L 241.33025 219.267673 
L 241.767495 219.116691 
L 243.07923 219.206394 
L 243.516475 219.292038 
L 244.390965 219.09805 
L 245.7027 219.272287 
L 246.139945 219.267857 
L 246.57719 219.115952 
L 248.32617 219.306802 
L 249.20066 219.120753 
L 250.512395 219.299051 
L 252.261375 219.219314 
L 253.135865 219.316216 
L 253.57311 219.172063 
L 254.4476 219.221532 
L 255.759335 219.251802 
L 256.19658 219.134225 
L 257.94556 219.318247 
L 258.382805 219.16579 
L 259.69454 219.253278 
L 260.131785 219.34021 
L 261.006275 219.145118 
L 262.31801 219.316032 
L 262.755255 219.316032 
L 263.1925 219.163943 
L 265.378725 219.232974 
L 265.81597 219.168372 
L 267.127705 219.34298 
L 267.56495 219.314557 
L 268.002195 219.166713 
L 269.751175 219.359778 
L 270.625665 219.187937 
L 271.9374 219.364762 
L 273.249135 219.249584 
L 274.56087 219.364391 
L 274.998115 219.211379 
L 276.30985 219.298498 
L 276.747095 219.381928 
L 277.621585 219.185909 
L 278.93332 219.352394 
L 279.370565 219.355716 
L 279.80781 219.208796 
L 281.994035 219.272106 
L 282.43128 219.20252 
L 283.743015 219.376388 
L 284.18026 219.34741 
L 284.617505 219.20455 
L 286.366485 219.398723 
L 287.240975 219.225774 
L 288.55271 219.399459 
L 289.864445 219.278011 
L 291.17618 219.396321 
L 291.613425 219.249216 
L 292.92516 219.329137 
L 293.362405 219.413858 
L 294.236895 219.223744 
L 295.54863 219.383588 
L 295.985875 219.394477 
L 296.42312 219.243311 
L 298.609345 219.304959 
L 299.04659 219.237219 
L 300.358325 219.410351 
L 300.79557 219.383956 
L 301.232815 219.23925 
L 302.981795 219.429548 
L 303.856285 219.251431 
L 305.16802 219.426594 
L 306.479755 219.313449 
L 307.79149 219.433054 
L 308.228735 219.285394 
L 309.103225 219.347226 
L 310.41496 219.359223 
L 310.852205 219.247554 
L 312.16394 219.410904 
L 312.601185 219.428624 
L 313.03843 219.276903 
L 315.224655 219.340397 
L 315.6619 219.262508 
L 316.973635 219.438407 
L 317.41088 219.414413 
L 317.848125 219.269152 
L 319.597105 219.453542 
L 320.471595 219.275612 
L 321.78333 219.453358 
L 323.095065 219.334489 
L 324.4068 219.455756 
L 324.844045 219.305143 
L 325.718535 219.369376 
L 327.03027 219.383217 
L 327.467515 219.271366 
L 328.77925 219.434161 
L 329.216495 219.45022 
L 329.65374 219.29536 
L 331.839965 219.364207 
L 332.27721 219.285394 
L 333.588945 219.454094 
L 334.02619 219.446713 
L 334.463435 219.290192 
L 336.212415 219.480121 
L 337.086905 219.295729 
L 338.39864 219.467569 
L 340.14762 219.384879 
L 341.02211 219.478643 
L 341.459355 219.336152 
L 342.333845 219.390048 
L 343.64558 219.412934 
L 344.082825 219.294992 
L 345.831805 219.475689 
L 346.26905 219.325446 
L 347.580785 219.41921 
L 348.01803 219.498208 
L 348.89252 219.302189 
L 350.204255 219.472554 
L 350.6415 219.460186 
L 351.078745 219.315293 
L 352.827725 219.499683 
L 353.702215 219.315112 
L 355.01395 219.489349 
L 356.76293 219.405367 
L 357.63742 219.498576 
L 358.51191 219.328216 
L 359.823645 219.498395 
L 361.13538 219.381186 
L 362.447115 219.49507 
L 362.88436 219.339842 
L 364.196095 219.426594 
L 364.63334 219.508729 
L 365.50783 219.314741 
L 366.819565 219.485471 
L 367.25681 219.473843 
L 367.694055 219.327845 
L 369.443035 219.51353 
L 370.317525 219.327477 
L 371.62926 219.490088 
L 372.066505 219.465539 
L 372.50375 219.310495 
L 374.25273 219.513898 
L 374.689975 219.358299 
L 375.564465 219.383404 
L 376.00171 219.478459 
L 376.438955 219.433238 
L 376.8762 219.555057 
L 377.313445 219.17151 
L 377.75069 219.589021 
L 378.187935 219.163575 
L 378.62518 219.806448 
L 379.062425 219.08236 
L 379.49967 219.897258 
L 379.936915 218.672976 
L 380.37416 220.289479 
L 380.811405 218.354582 
L 381.24865 220.900422 
L 381.685895 217.672396 
L 382.12314 221.621001 
L 382.560385 216.343274 
L 382.99763 223.745457 
L 383.434875 212.833217 
L 383.87212 232.077709 
L 384.309365 111.821404 
L 384.74661 37.580486 
L 385.183855 59.06756 
L 385.6211 46.252359 
L 386.058345 55.35392 
L 386.49559 48.395456 
L 386.932835 53.638112 
L 387.37008 49.536127 
L 387.807325 52.737941 
L 388.24457 50.147067 
L 388.681815 55.9632 
L 389.11906 197.615589 
L 389.556305 225.32597 
L 389.99355 215.418922 
L 390.430795 221.850244 
L 390.86804 217.100398 
L 391.305285 220.84099 
L 391.74253 217.580292 
L 392.179775 220.377154 
L 392.61702 218.077167 
L 393.054265 220.144034 
L 393.49151 218.392052 
L 393.928755 219.722466 
L 394.366 218.531221 
L 394.803245 219.639039 
L 395.24049 218.777629 
L 395.677735 219.594741 
L 396.11498 218.803099 
L 396.552225 219.325815 
L 396.98947 218.956298 
L 397.426715 219.338183 
L 397.86396 219.1202 
L 398.301205 219.288161 
L 398.73845 218.985274 
L 399.175695 219.202336 
L 399.61294 219.117983 
L 400.050185 219.266382 
L 401.799165 219.184431 
L 403.1109 219.17871 
L 403.548145 219.093437 
L 404.85988 219.271182 
L 405.297125 219.261768 
L 405.73437 219.111526 
L 407.48335 219.309388 
L 408.35784 219.125366 
L 409.669575 219.305695 
L 411.418555 219.23279 
L 412.293045 219.326922 
L 413.167535 219.15767 
L 414.47927 219.336336 
L 415.791005 219.222455 
L 417.10274 219.338367 
L 417.539985 219.185538 
L 418.85172 219.284471 
L 419.288965 219.36679 
L 420.163455 219.17594 
L 421.47519 219.34095 
L 421.912435 219.345011 
L 422.34968 219.192922 
L 424.535905 219.263799 
L 424.97315 219.204919 
L 426.284885 219.378603 
L 428.033865 219.302928 
L 428.908355 219.400014 
L 429.782845 219.228728 
L 431.09458 219.406474 
L 432.406315 219.293146 
L 433.71805 219.408873 
L 434.155295 219.2614 
L 435.46703 219.352578 
L 435.904275 219.429548 
L 436.778765 219.238698 
L 438.0905 219.40795 
L 438.527745 219.413858 
L 438.96499 219.264538 
L 441.151215 219.331907 
L 441.58846 219.262689 
L 442.900195 219.432683 
L 443.33744 219.417548 
L 443.774685 219.270443 
L 445.523665 219.461661 
L 446.398155 219.284839 
L 447.70989 219.465907 
L 449.021625 219.352394 
L 450.33336 219.467385 
L 450.770605 219.328216 
L 451.645095 219.389124 
L 452.95683 219.401677 
L 453.394075 219.298314 
L 454.70581 219.463692 
L 455.143055 219.475321 
L 455.5803 219.328029 
L 457.766525 219.3906 
L 458.20377 219.316216 
L 459.515505 219.491008 
L 459.95275 219.476797 
L 460.389995 219.328584 
L 462.138975 219.519987 
L 463.013465 219.340581 
L 464.3252 219.518695 
L 465.636935 219.404815 
L 466.94867 219.528478 
L 467.385915 219.380818 
L 468.260405 219.439698 
L 469.57214 219.456309 
L 470.009385 219.348701 
L 471.32112 219.513159 
L 471.758365 219.527186 
L 472.19561 219.374358 
L 474.381835 219.446158 
L 474.81908 219.364023 
L 476.130815 219.542321 
L 476.56806 219.522386 
L 477.005305 219.37233 
L 478.754285 219.571116 
L 479.628775 219.384327 
L 480.94051 219.560594 
L 482.252245 219.44579 
L 482.252245 219.44579 
" clip-path="url(#p4a6e6b6ff9)" style="fill: none; stroke: #1f77b4; stroke-width: 1.5; stroke-linecap: square"/>
   </g>
   <g id="patch_3">
    <path d="M 44.57 246.04 
L 44.57 26.88 
" style="fill: none; stroke: #000000; stroke-width: 0.8; stroke-linejoin: miter; stroke-linecap: square"/>
   </g>
   <g id="patch_4">
    <path d="M 481.815 246.04 
L 481.815 26.88 
" style="fill: none; stroke: #000000; stroke-width: 0.8; stroke-linejoin: miter; stroke-linecap: square"/>
   </g>
   <g id="patch_5">
    <path d="M 44.57 246.04 
L 481.815 246.04 
" style="fill: none; stroke: #000000; stroke-width: 0.8; stroke-linejoin: miter; stroke-linecap: square"/>
   </g>
   <g id="patch_6">
    <path d="M 44.57 26.88 
L 481.815 26.88 
" style="fill: none; stroke: #000000; stroke-width: 0.8; stroke-linejoin: miter; stroke-linecap: square"/>
   </g>
   <g id="text_16">
    <!-- Señal original -->
    <g transform="translate(222.211563 20.88) scale(0.12 -0.12)">
     <defs>
      <path id="DejaVuSans-53" d="M 3425 4513 
L 3425 3897 
Q 3066 4069 2747 4153 
Q 2428 4238 2131 4238 
Q 1616 4238 1336 4038 
Q 1056 3838 1056 3469 
Q 1056 3159 1242 3001 
Q 1428 2844 1947 2747 
L 2328 2669 
Q 3034 2534 3370 2195 
Q 3706 1856 3706 1288 
Q 3706 609 3251 259 
Q 2797 -91 1919 -91 
Q 1588 -91 1214 -16 
Q 841 59 441 206 
L 441 856 
Q 825 641 1194 531 
Q 1563 422 1919 422 
Q 2459 422 2753 634 
Q 3047 847 3047 1241 
Q 3047 1584 2836 1778 
Q 2625 1972 2144 2069 
L 1759 2144 
Q 1053 2284 737 2584 
Q 422 2884 422 3419 
Q 422 4038 858 4394 
Q 1294 4750 2059 4750 
Q 2388 4750 2728 4690 
Q 3069 4631 3425 4513 
z
" transform="scale(0.015625)"/>
      <path id="DejaVuSans-f1" d="M 3513 2113 
L 3513 0 
L 2938 0 
L 2938 2094 
Q 2938 2591 2744 2837 
Q 2550 3084 2163 3084 
Q 1697 3084 1428 2787 
Q 1159 2491 1159 1978 
L 1159 0 
L 581 0 
L 581 3500 
L 1159 3500 
L 1159 2956 
Q 1366 3272 1645 3428 
Q 1925 3584 2291 3584 
Q 2894 3584 3203 3211 
Q 3513 2838 3513 2113 
z
M 2060 4281 
L 1881 4453 
Q 1813 4516 1761 4545 
Q 1710 4575 1669 4575 
Q 1550 4575 1494 4461 
Q 1438 4347 1431 4091 
L 1041 4091 
Q 1047 4513 1206 4742 
Q 1366 4972 1650 4972 
Q 1769 4972 1869 4928 
Q 1969 4884 2085 4781 
L 2263 4609 
Q 2331 4547 2383 4517 
Q 2435 4488 2475 4488 
Q 2594 4488 2650 4602 
Q 2706 4716 2713 4972 
L 3103 4972 
Q 3097 4550 2937 4320 
Q 2778 4091 2494 4091 
Q 2375 4091 2275 4134 
Q 2175 4178 2060 4281 
z
" transform="scale(0.015625)"/>
      <path id="DejaVuSans-61" d="M 2194 1759 
Q 1497 1759 1228 1600 
Q 959 1441 959 1056 
Q 959 750 1161 570 
Q 1363 391 1709 391 
Q 2188 391 2477 730 
Q 2766 1069 2766 1631 
L 2766 1759 
L 2194 1759 
z
M 3341 1997 
L 3341 0 
L 2766 0 
L 2766 531 
Q 2569 213 2275 61 
Q 1981 -91 1556 -91 
Q 1019 -91 701 211 
Q 384 513 384 1019 
Q 384 1609 779 1909 
Q 1175 2209 1959 2209 
L 2766 2209 
L 2766 2266 
Q 2766 2663 2505 2880 
Q 2244 3097 1772 3097 
Q 1472 3097 1187 3025 
Q 903 2953 641 2809 
L 641 3341 
Q 956 3463 1253 3523 
Q 1550 3584 1831 3584 
Q 2591 3584 2966 3190 
Q 3341 2797 3341 1997 
z
" transform="scale(0.015625)"/>
      <path id="DejaVuSans-72" d="M 2631 2963 
Q 2534 3019 2420 3045 
Q 2306 3072 2169 3072 
Q 1681 3072 1420 2755 
Q 1159 2438 1159 1844 
L 1159 0 
L 581 0 
L 581 3500 
L 1159 3500 
L 1159 2956 
Q 1341 3275 1631 3429 
Q 1922 3584 2338 3584 
Q 2397 3584 2469 3576 
Q 2541 3569 2628 3553 
L 2631 2963 
z
" transform="scale(0.015625)"/>
      <path id="DejaVuSans-67" d="M 2906 1791 
Q 2906 2416 2648 2759 
Q 2391 3103 1925 3103 
Q 1463 3103 1205 2759 
Q 947 2416 947 1791 
Q 947 1169 1205 825 
Q 1463 481 1925 481 
Q 2391 481 2648 825 
Q 2906 1169 2906 1791 
z
M 3481 434 
Q 3481 -459 3084 -895 
Q 2688 -1331 1869 -1331 
Q 1566 -1331 1297 -1286 
Q 1028 -1241 775 -1147 
L 775 -588 
Q 1028 -725 1275 -790 
Q 1522 -856 1778 -856 
Q 2344 -856 2625 -561 
Q 2906 -266 2906 331 
L 2906 616 
Q 2728 306 2450 153 
Q 2172 0 1784 0 
Q 1141 0 747 490 
Q 353 981 353 1791 
Q 353 2603 747 3093 
Q 1141 3584 1784 3584 
Q 2172 3584 2450 3431 
Q 2728 3278 2906 2969 
L 2906 3500 
L 3481 3500 
L 3481 434 
z
" transform="scale(0.015625)"/>
      <path id="DejaVuSans-6e" d="M 3513 2113 
L 3513 0 
L 2938 0 
L 2938 2094 
Q 2938 2591 2744 2837 
Q 2550 3084 2163 3084 
Q 1697 3084 1428 2787 
Q 1159 2491 1159 1978 
L 1159 0 
L 581 0 
L 581 3500 
L 1159 3500 
L 1159 2956 
Q 1366 3272 1645 3428 
Q 1925 3584 2291 3584 
Q 2894 3584 3203 3211 
Q 3513 2838 3513 2113 
z
" transform="scale(0.015625)"/>
     </defs>
     <use xlink:href="#DejaVuSans-53"/>
     <use xlink:href="#DejaVuSans-65" transform="translate(63.476562 0)"/>
     <use xlink:href="#DejaVuSans-f1" transform="translate(125 0)"/>
     <use xlink:href="#DejaVuSans-61" transform="translate(188.378906 0)"/>
     <use xlink:href="#DejaVuSans-6c" transform="translate(249.658203 0)"/>
     <use xlink:href="#DejaVuSans-20" transform="translate(277.441406 0)"/>
     <use xlink:href="#DejaVuSans-6f" transform="translate(309.228516 0)"/>
     <use xlink:href="#DejaVuSans-72" transform="translate(370.410156 0)"/>
     <use xlink:href="#DejaVuSans-69" transform="translate(411.523438 0)"/>
     <use xlink:href="#DejaVuSans-67" transform="translate(439.306641 0)"/>
     <use xlink:href="#DejaVuSans-69" transform="translate(502.783203 0)"/>
     <use xlink:href="#DejaVuSans-6e" transform="translate(530.566406 0)"/>
     <use xlink:href="#DejaVuSans-61" transform="translate(593.945312 0)"/>
     <use xlink:href="#DejaVuSans-6c" transform="translate(655.224609 0)"/>
    </g>
   </g>
   <g id="legend_1">
    <g id="patch_7">
     <path d="M 213.041719 241.04 
L 313.343281 241.04 
Q 315.343281 241.04 315.343281 239.04 
L 315.343281 225.191562 
Q 315.343281 223.191562 313.343281 223.191562 
L 213.041719 223.191562 
Q 211.041719 223.191562 211.041719 225.191562 
L 211.041719 239.04 
Q 211.041719 241.04 213.041719 241.04 
z
" style="fill: #ffffff; opacity: 0.8; stroke: #cccccc; stroke-linejoin: miter"/>
    </g>
    <g id="line2d_15">
     <path d="M 215.041719 231.460312 
L 225.041719 231.460312 
L 235.041719 231.460312 
" style="fill: none; stroke: #1f77b4; stroke-width: 1.5; stroke-linecap: square"/>
    </g>
    <g id="text_17">
     <!-- Señal original -->
     <g transform="translate(243.041719 234.960312) scale(0.1 -0.1)">
      <use xlink:href="#DejaVuSans-53"/>
      <use xlink:href="#DejaVuSans-65" transform="translate(63.476562 0)"/>
      <use xlink:href="#DejaVuSans-f1" transform="translate(125 0)"/>
      <use xlink:href="#DejaVuSans-61" transform="translate(188.378906 0)"/>
      <use xlink:href="#DejaVuSans-6c" transform="translate(249.658203 0)"/>
      <use xlink:href="#DejaVuSans-20" transform="translate(277.441406 0)"/>
      <use xlink:href="#DejaVuSans-6f" transform="translate(309.228516 0)"/>
      <use xlink:href="#DejaVuSans-72" transform="translate(370.410156 0)"/>
      <use xlink:href="#DejaVuSans-69" transform="translate(411.523438 0)"/>
      <use xlink:href="#DejaVuSans-67" transform="translate(439.306641 0)"/>
      <use xlink:href="#DejaVuSans-69" transform="translate(502.783203 0)"/>
      <use xlink:href="#DejaVuSans-6e" transform="translate(530.566406 0)"/>
      <use xlink:href="#DejaVuSans-61" transform="translate(593.945312 0)"/>
      <use xlink:href="#DejaVuSans-6c" transform="translate(655.224609 0)"/>
     </g>
    </g>
   </g>
  </g>
  <g id="axes_2">
   <g id="patch_8">
    <path d="M 548.885 246.04 
L 986.13 246.04 
L 986.13 26.88 
L 548.885 26.88 
z
" style="fill: #ffffff"/>
   </g>
   <g id="matplotlib.axis_3">
    <g id="xtick_7">
     <g id="line2d_16">
      <g>
       <use xlink:href="#m007088d8d3" x="548.885" y="246.04" style="stroke: #000000; stroke-width: 0.8"/>
      </g>
     </g>
     <g id="text_18">
      <!-- 0.00 -->
      <g transform="translate(537.752187 260.638438) scale(0.1 -0.1)">
       <use xlink:href="#DejaVuSans-30"/>
       <use xlink:href="#DejaVuSans-2e" transform="translate(63.623047 0)"/>
       <use xlink:href="#DejaVuSans-30" transform="translate(95.410156 0)"/>
       <use xlink:href="#DejaVuSans-30" transform="translate(159.033203 0)"/>
      </g>
     </g>
    </g>
    <g id="xtick_8">
     <g id="line2d_17">
      <g>
       <use xlink:href="#m007088d8d3" x="636.334" y="246.04" style="stroke: #000000; stroke-width: 0.8"/>
      </g>
     </g>
     <g id="text_19">
      <!-- 0.02 -->
      <g transform="translate(625.201187 260.638438) scale(0.1 -0.1)">
       <use xlink:href="#DejaVuSans-30"/>
       <use xlink:href="#DejaVuSans-2e" transform="translate(63.623047 0)"/>
       <use xlink:href="#DejaVuSans-30" transform="translate(95.410156 0)"/>
       <use xlink:href="#DejaVuSans-32" transform="translate(159.033203 0)"/>
      </g>
     </g>
    </g>
    <g id="xtick_9">
     <g id="line2d_18">
      <g>
       <use xlink:href="#m007088d8d3" x="723.783" y="246.04" style="stroke: #000000; stroke-width: 0.8"/>
      </g>
     </g>
     <g id="text_20">
      <!-- 0.04 -->
      <g transform="translate(712.650187 260.638438) scale(0.1 -0.1)">
       <use xlink:href="#DejaVuSans-30"/>
       <use xlink:href="#DejaVuSans-2e" transform="translate(63.623047 0)"/>
       <use xlink:href="#DejaVuSans-30" transform="translate(95.410156 0)"/>
       <use xlink:href="#DejaVuSans-34" transform="translate(159.033203 0)"/>
      </g>
     </g>
    </g>
    <g id="xtick_10">
     <g id="line2d_19">
      <g>
       <use xlink:href="#m007088d8d3" x="811.232" y="246.04" style="stroke: #000000; stroke-width: 0.8"/>
      </g>
     </g>
     <g id="text_21">
      <!-- 0.06 -->
      <g transform="translate(800.099187 260.638438) scale(0.1 -0.1)">
       <use xlink:href="#DejaVuSans-30"/>
       <use xlink:href="#DejaVuSans-2e" transform="translate(63.623047 0)"/>
       <use xlink:href="#DejaVuSans-30" transform="translate(95.410156 0)"/>
       <use xlink:href="#DejaVuSans-36" transform="translate(159.033203 0)"/>
      </g>
     </g>
    </g>
    <g id="xtick_11">
     <g id="line2d_20">
      <g>
       <use xlink:href="#m007088d8d3" x="898.681" y="246.04" style="stroke: #000000; stroke-width: 0.8"/>
      </g>
     </g>
     <g id="text_22">
      <!-- 0.08 -->
      <g transform="translate(887.548187 260.638438) scale(0.1 -0.1)">
       <use xlink:href="#DejaVuSans-30"/>
       <use xlink:href="#DejaVuSans-2e" transform="translate(63.623047 0)"/>
       <use xlink:href="#DejaVuSans-30" transform="translate(95.410156 0)"/>
       <use xlink:href="#DejaVuSans-38" transform="translate(159.033203 0)"/>
      </g>
     </g>
    </g>
    <g id="xtick_12">
     <g id="line2d_21">
      <g>
       <use xlink:href="#m007088d8d3" x="986.13" y="246.04" style="stroke: #000000; stroke-width: 0.8"/>
      </g>
     </g>
     <g id="text_23">
      <!-- 0.10 -->
      <g transform="translate(974.997187 260.638438) scale(0.1 -0.1)">
       <use xlink:href="#DejaVuSans-30"/>
       <use xlink:href="#DejaVuSans-2e" transform="translate(63.623047 0)"/>
       <use xlink:href="#DejaVuSans-31" transform="translate(95.410156 0)"/>
       <use xlink:href="#DejaVuSans-30" transform="translate(159.033203 0)"/>
      </g>
     </g>
    </g>
    <g id="text_24">
     <!-- Tiempo (s) -->
     <g transform="translate(740.945 274.316562) scale(0.1 -0.1)">
      <use xlink:href="#DejaVuSans-54"/>
      <use xlink:href="#DejaVuSans-69" transform="translate(57.958984 0)"/>
      <use xlink:href="#DejaVuSans-65" transform="translate(85.742188 0)"/>
      <use xlink:href="#DejaVuSans-6d" transform="translate(147.265625 0)"/>
      <use xlink:href="#DejaVuSans-70" transform="translate(244.677734 0)"/>
      <use xlink:href="#DejaVuSans-6f" transform="translate(308.154297 0)"/>
      <use xlink:href="#DejaVuSans-20" transform="translate(369.335938 0)"/>
      <use xlink:href="#DejaVuSans-28" transform="translate(401.123047 0)"/>
      <use xlink:href="#DejaVuSans-73" transform="translate(440.136719 0)"/>
      <use xlink:href="#DejaVuSans-29" transform="translate(492.236328 0)"/>
     </g>
    </g>
   </g>
   <g id="matplotlib.axis_4">
    <g id="ytick_8">
     <g id="line2d_22">
      <g>
       <use xlink:href="#mb4d8274e68" x="548.885" y="246.04" style="stroke: #000000; stroke-width: 0.8"/>
      </g>
     </g>
     <g id="text_25">
      <!-- −0.2 -->
      <g transform="translate(517.602187 249.839219) scale(0.1 -0.1)">
       <defs>
        <path id="DejaVuSans-2212" d="M 678 2272 
L 4684 2272 
L 4684 1741 
L 678 1741 
L 678 2272 
z
" transform="scale(0.015625)"/>
       </defs>
       <use xlink:href="#DejaVuSans-2212"/>
       <use xlink:href="#DejaVuSans-30" transform="translate(83.789062 0)"/>
       <use xlink:href="#DejaVuSans-2e" transform="translate(147.412109 0)"/>
       <use xlink:href="#DejaVuSans-32" transform="translate(179.199219 0)"/>
      </g>
     </g>
    </g>
    <g id="ytick_9">
     <g id="line2d_23">
      <g>
       <use xlink:href="#mb4d8274e68" x="548.885" y="214.731429" style="stroke: #000000; stroke-width: 0.8"/>
      </g>
     </g>
     <g id="text_26">
      <!-- 0.0 -->
      <g transform="translate(525.981875 218.530647) scale(0.1 -0.1)">
       <use xlink:href="#DejaVuSans-30"/>
       <use xlink:href="#DejaVuSans-2e" transform="translate(63.623047 0)"/>
       <use xlink:href="#DejaVuSans-30" transform="translate(95.410156 0)"/>
      </g>
     </g>
    </g>
    <g id="ytick_10">
     <g id="line2d_24">
      <g>
       <use xlink:href="#mb4d8274e68" x="548.885" y="183.422857" style="stroke: #000000; stroke-width: 0.8"/>
      </g>
     </g>
     <g id="text_27">
      <!-- 0.2 -->
      <g transform="translate(525.981875 187.222076) scale(0.1 -0.1)">
       <use xlink:href="#DejaVuSans-30"/>
       <use xlink:href="#DejaVuSans-2e" transform="translate(63.623047 0)"/>
       <use xlink:href="#DejaVuSans-32" transform="translate(95.410156 0)"/>
      </g>
     </g>
    </g>
    <g id="ytick_11">
     <g id="line2d_25">
      <g>
       <use xlink:href="#mb4d8274e68" x="548.885" y="152.114286" style="stroke: #000000; stroke-width: 0.8"/>
      </g>
     </g>
     <g id="text_28">
      <!-- 0.4 -->
      <g transform="translate(525.981875 155.913504) scale(0.1 -0.1)">
       <use xlink:href="#DejaVuSans-30"/>
       <use xlink:href="#DejaVuSans-2e" transform="translate(63.623047 0)"/>
       <use xlink:href="#DejaVuSans-34" transform="translate(95.410156 0)"/>
      </g>
     </g>
    </g>
    <g id="ytick_12">
     <g id="line2d_26">
      <g>
       <use xlink:href="#mb4d8274e68" x="548.885" y="120.805714" style="stroke: #000000; stroke-width: 0.8"/>
      </g>
     </g>
     <g id="text_29">
      <!-- 0.6 -->
      <g transform="translate(525.981875 124.604933) scale(0.1 -0.1)">
       <use xlink:href="#DejaVuSans-30"/>
       <use xlink:href="#DejaVuSans-2e" transform="translate(63.623047 0)"/>
       <use xlink:href="#DejaVuSans-36" transform="translate(95.410156 0)"/>
      </g>
     </g>
    </g>
    <g id="ytick_13">
     <g id="line2d_27">
      <g>
       <use xlink:href="#mb4d8274e68" x="548.885" y="89.497143" style="stroke: #000000; stroke-width: 0.8"/>
      </g>
     </g>
     <g id="text_30">
      <!-- 0.8 -->
      <g transform="translate(525.981875 93.296362) scale(0.1 -0.1)">
       <use xlink:href="#DejaVuSans-30"/>
       <use xlink:href="#DejaVuSans-2e" transform="translate(63.623047 0)"/>
       <use xlink:href="#DejaVuSans-38" transform="translate(95.410156 0)"/>
      </g>
     </g>
    </g>
    <g id="ytick_14">
     <g id="line2d_28">
      <g>
       <use xlink:href="#mb4d8274e68" x="548.885" y="58.188571" style="stroke: #000000; stroke-width: 0.8"/>
      </g>
     </g>
     <g id="text_31">
      <!-- 1.0 -->
      <g transform="translate(525.981875 61.98779) scale(0.1 -0.1)">
       <use xlink:href="#DejaVuSans-31"/>
       <use xlink:href="#DejaVuSans-2e" transform="translate(63.623047 0)"/>
       <use xlink:href="#DejaVuSans-30" transform="translate(95.410156 0)"/>
      </g>
     </g>
    </g>
    <g id="ytick_15">
     <g id="line2d_29">
      <g>
       <use xlink:href="#mb4d8274e68" x="548.885" y="26.88" style="stroke: #000000; stroke-width: 0.8"/>
      </g>
     </g>
     <g id="text_32">
      <!-- 1.2 -->
      <g transform="translate(525.981875 30.679219) scale(0.1 -0.1)">
       <use xlink:href="#DejaVuSans-31"/>
       <use xlink:href="#DejaVuSans-2e" transform="translate(63.623047 0)"/>
       <use xlink:href="#DejaVuSans-32" transform="translate(95.410156 0)"/>
      </g>
     </g>
    </g>
    <g id="text_33">
     <!-- 0/1 -->
     <g transform="translate(511.5225 144.506875) rotate(-90) scale(0.1 -0.1)">
      <defs>
       <path id="DejaVuSans-2f" d="M 1625 4666 
L 2156 4666 
L 531 -594 
L 0 -594 
L 1625 4666 
z
" transform="scale(0.015625)"/>
      </defs>
      <use xlink:href="#DejaVuSans-30"/>
      <use xlink:href="#DejaVuSans-2f" transform="translate(63.623047 0)"/>
      <use xlink:href="#DejaVuSans-31" transform="translate(97.314453 0)"/>
     </g>
    </g>
   </g>
   <g id="line2d_30">
    <path d="M 548.885 214.731429 
L 648.57686 214.731429 
L 649.014105 58.188571 
L 652.94931 58.188571 
L 653.386555 214.731429 
L 888.18712 214.731429 
L 888.624365 58.188571 
L 892.996815 58.188571 
L 893.43406 214.731429 
L 986.567245 214.731429 
L 986.567245 214.731429 
" clip-path="url(#pd9a3e942bc)" style="fill: none; stroke: #ff0000; stroke-width: 1.5; stroke-linecap: square"/>
   </g>
   <g id="patch_9">
    <path d="M 548.885 246.04 
L 548.885 26.88 
" style="fill: none; stroke: #000000; stroke-width: 0.8; stroke-linejoin: miter; stroke-linecap: square"/>
   </g>
   <g id="patch_10">
    <path d="M 986.13 246.04 
L 986.13 26.88 
" style="fill: none; stroke: #000000; stroke-width: 0.8; stroke-linejoin: miter; stroke-linecap: square"/>
   </g>
   <g id="patch_11">
    <path d="M 548.885 246.04 
L 986.13 246.04 
" style="fill: none; stroke: #000000; stroke-width: 0.8; stroke-linejoin: miter; stroke-linecap: square"/>
   </g>
   <g id="patch_12">
    <path d="M 548.885 26.88 
L 986.13 26.88 
" style="fill: none; stroke: #000000; stroke-width: 0.8; stroke-linejoin: miter; stroke-linecap: square"/>
   </g>
   <g id="text_34">
    <!-- Señal tras aplicar threshold -->
    <g transform="translate(685.002812 20.88) scale(0.12 -0.12)">
     <defs>
      <path id="DejaVuSans-63" d="M 3122 3366 
L 3122 2828 
Q 2878 2963 2633 3030 
Q 2388 3097 2138 3097 
Q 1578 3097 1268 2742 
Q 959 2388 959 1747 
Q 959 1106 1268 751 
Q 1578 397 2138 397 
Q 2388 397 2633 464 
Q 2878 531 3122 666 
L 3122 134 
Q 2881 22 2623 -34 
Q 2366 -91 2075 -91 
Q 1284 -91 818 406 
Q 353 903 353 1747 
Q 353 2603 823 3093 
Q 1294 3584 2113 3584 
Q 2378 3584 2631 3529 
Q 2884 3475 3122 3366 
z
" transform="scale(0.015625)"/>
      <path id="DejaVuSans-68" d="M 3513 2113 
L 3513 0 
L 2938 0 
L 2938 2094 
Q 2938 2591 2744 2837 
Q 2550 3084 2163 3084 
Q 1697 3084 1428 2787 
Q 1159 2491 1159 1978 
L 1159 0 
L 581 0 
L 581 4863 
L 1159 4863 
L 1159 2956 
Q 1366 3272 1645 3428 
Q 1925 3584 2291 3584 
Q 2894 3584 3203 3211 
Q 3513 2838 3513 2113 
z
" transform="scale(0.015625)"/>
     </defs>
     <use xlink:href="#DejaVuSans-53"/>
     <use xlink:href="#DejaVuSans-65" transform="translate(63.476562 0)"/>
     <use xlink:href="#DejaVuSans-f1" transform="translate(125 0)"/>
     <use xlink:href="#DejaVuSans-61" transform="translate(188.378906 0)"/>
     <use xlink:href="#DejaVuSans-6c" transform="translate(249.658203 0)"/>
     <use xlink:href="#DejaVuSans-20" transform="translate(277.441406 0)"/>
     <use xlink:href="#DejaVuSans-74" transform="translate(309.228516 0)"/>
     <use xlink:href="#DejaVuSans-72" transform="translate(348.4375 0)"/>
     <use xlink:href="#DejaVuSans-61" transform="translate(389.550781 0)"/>
     <use xlink:href="#DejaVuSans-73" transform="translate(450.830078 0)"/>
     <use xlink:href="#DejaVuSans-20" transform="translate(502.929688 0)"/>
     <use xlink:href="#DejaVuSans-61" transform="translate(534.716797 0)"/>
     <use xlink:href="#DejaVuSans-70" transform="translate(595.996094 0)"/>
     <use xlink:href="#DejaVuSans-6c" transform="translate(659.472656 0)"/>
     <use xlink:href="#DejaVuSans-69" transform="translate(687.255859 0)"/>
     <use xlink:href="#DejaVuSans-63" transform="translate(715.039062 0)"/>
     <use xlink:href="#DejaVuSans-61" transform="translate(770.019531 0)"/>
     <use xlink:href="#DejaVuSans-72" transform="translate(831.298828 0)"/>
     <use xlink:href="#DejaVuSans-20" transform="translate(872.412109 0)"/>
     <use xlink:href="#DejaVuSans-74" transform="translate(904.199219 0)"/>
     <use xlink:href="#DejaVuSans-68" transform="translate(943.408203 0)"/>
     <use xlink:href="#DejaVuSans-72" transform="translate(1006.787109 0)"/>
     <use xlink:href="#DejaVuSans-65" transform="translate(1045.650391 0)"/>
     <use xlink:href="#DejaVuSans-73" transform="translate(1107.173828 0)"/>
     <use xlink:href="#DejaVuSans-68" transform="translate(1159.273438 0)"/>
     <use xlink:href="#DejaVuSans-6f" transform="translate(1222.652344 0)"/>
     <use xlink:href="#DejaVuSans-6c" transform="translate(1283.833984 0)"/>
     <use xlink:href="#DejaVuSans-64" transform="translate(1311.617188 0)"/>
    </g>
   </g>
   <g id="legend_2">
    <g id="patch_13">
     <path d="M 912.008125 49.558125 
L 979.13 49.558125 
Q 981.13 49.558125 981.13 47.558125 
L 981.13 33.88 
Q 981.13 31.88 979.13 31.88 
L 912.008125 31.88 
Q 910.008125 31.88 910.008125 33.88 
L 910.008125 47.558125 
Q 910.008125 49.558125 912.008125 49.558125 
z
" style="fill: #ffffff; opacity: 0.8; stroke: #cccccc; stroke-linejoin: miter"/>
    </g>
    <g id="line2d_31">
     <path d="M 914.008125 39.978437 
L 924.008125 39.978437 
L 934.008125 39.978437 
" style="fill: none; stroke: #ff0000; stroke-width: 1.5; stroke-linecap: square"/>
    </g>
    <g id="text_35">
     <!-- Binaria -->
     <g transform="translate(942.008125 43.478437) scale(0.1 -0.1)">
      <defs>
       <path id="DejaVuSans-42" d="M 1259 2228 
L 1259 519 
L 2272 519 
Q 2781 519 3026 730 
Q 3272 941 3272 1375 
Q 3272 1813 3026 2020 
Q 2781 2228 2272 2228 
L 1259 2228 
z
M 1259 4147 
L 1259 2741 
L 2194 2741 
Q 2656 2741 2882 2914 
Q 3109 3088 3109 3444 
Q 3109 3797 2882 3972 
Q 2656 4147 2194 4147 
L 1259 4147 
z
M 628 4666 
L 2241 4666 
Q 2963 4666 3353 4366 
Q 3744 4066 3744 3513 
Q 3744 3084 3544 2831 
Q 3344 2578 2956 2516 
Q 3422 2416 3680 2098 
Q 3938 1781 3938 1306 
Q 3938 681 3513 340 
Q 3088 0 2303 0 
L 628 0 
L 628 4666 
z
" transform="scale(0.015625)"/>
      </defs>
      <use xlink:href="#DejaVuSans-42"/>
      <use xlink:href="#DejaVuSans-69" transform="translate(68.603516 0)"/>
      <use xlink:href="#DejaVuSans-6e" transform="translate(96.386719 0)"/>
      <use xlink:href="#DejaVuSans-61" transform="translate(159.765625 0)"/>
      <use xlink:href="#DejaVuSans-72" transform="translate(221.044922 0)"/>
      <use xlink:href="#DejaVuSans-69" transform="translate(262.158203 0)"/>
      <use xlink:href="#DejaVuSans-61" transform="translate(289.941406 0)"/>
     </g>
    </g>
   </g>
  </g>
 </g>
 <defs>
  <clipPath id="p4a6e6b6ff9">
   <rect x="44.57" y="26.88" width="437.245" height="219.16"/>
  </clipPath>
  <clipPath id="pd9a3e942bc">
   <rect x="548.885" y="26.88" width="437.245" height="219.16"/>
  </clipPath>
 </defs>
</svg>
